<svg xmlns="http://www.w3.org/2000/svg" viewBox="0 0 100.36 128.32"><defs><style>.cls-1{fill:#ffc219;}.cls-1,.cls-4{stroke:#47140a;stroke-miterlimit:10;}.cls-2,.cls-4{fill:#47140a;}.cls-3{fill:#ff002a;}.cls-5{fill:#f6ee51;}.cls-6{fill:#d5f400;}</style></defs><g id="Layer_2" data-name="Layer 2"><g id="Layer_1-2" data-name="Layer 1"><path class="cls-1" d="M33.81,77.78a44,44,0,0,0,44.37.61C92.47,70.3,100,55.55,99,40.93Z"/><path class="cls-2" d="M90.76,28.78,26.54,65.29A5,5,0,0,1,19.94,63a4.45,4.45,0,0,1,1.44-6L85.6,20.49c2.34-1.9,5.91-.9,7.36,1.43A4.69,4.69,0,0,1,90.76,28.78Z"/><path class="cls-2" d="M97.62,43.3,37.46,77.42a5.2,5.2,0,0,1-7-.85,5.11,5.11,0,0,1,1.88-7.44L92.47,35c2.33-1.8,5.82-.56,7.17,1.79S100.26,42.29,97.62,43.3Z"/><path class="cls-2" d="M78,65.43,54.68,78.69c-1.59,1-3,1-3.27.63s.5-1.57,2.14-2.45L76.86,63.61c1.56-.93,3-1.06,3.24-.69S79.65,64.48,78,65.43Z"/><ellipse class="cls-2" cx="85.71" cy="59.81" rx="1.82" ry="1.74"/><path class="cls-3" d="M88.69,23.44c-.35.2-.55.16-3.18.14-3.79,0-4.14,0-4.49.29-1.46,1-.1,2.92-1.43,4.93-1.86,2.79-7,2.76-7.64,2.76-2.44,0-2.94-.75-4.31-.2S65.48,33.29,64,36c-1.59,3-1.48,3.73-2.62,4.42s-2.25.58-4.6.46c-3.19-.15-3.89-.85-5.14-.25-1,.46-1.43,1.32-2.33,3-1.38,2.64-.9,3.46-2,4.46s-2.71,1.12-4.53,1.22c-2.76.15-3.82-.65-5.49.13-.3.14-.65.34-1.94,1.68-2.89,3-3.1,4-4.26,4.87s-3.16,1.4-7,.33c-1.45.53-5.17,1.77-6.47.35C16.14,55.07,18,50,19.8,49l60.89-34.8a7.47,7.47,0,0,1,8.18,1.11C91.06,17.52,90.66,22.35,88.69,23.44Z"/><path class="cls-1" d="M84.8,13.46C70.06,2.75,51.37.39,36.63,9S15.08,35,17.61,52.82Z"/><ellipse class="cls-4" cx="27.64" cy="36.69" rx="1.26" ry="1.29" transform="translate(-18.26 34.93) rotate(-50.82)"/><ellipse class="cls-4" cx="31.85" cy="24.12" rx="1.34" ry="1.37" transform="translate(-6.96 33.57) rotate(-50.82)"/><ellipse class="cls-4" cx="51.66" cy="12.7" rx="1.45" ry="1.48" transform="translate(9.18 44.73) rotate(-50.82)"/><ellipse class="cls-4" cx="65.73" cy="15.27" rx="1.44" ry="1.48" transform="translate(12.37 56.58) rotate(-50.82)"/><ellipse class="cls-4" cx="46.94" cy="26.27" rx="1.45" ry="1.48" transform="translate(-3.08 46.06) rotate(-50.82)"/><path class="cls-5" d="M89.83,29.23,27.65,64.58c-2.69,1.19-3.93,3.8-3,5.3S28.56,71.67,31,70l7.92-4.5L93.17,34.6c2.84-1.25,4.06-4,3.1-5.46S92.28,27.47,89.83,29.23Z"/><path class="cls-5" d="M45.94,61.5l-7,4c1.37,2.6,4.66,3.23,6.48,1.94A4.2,4.2,0,0,0,45.94,61.5Z"/><path d="M51,99.67,51.34,123c-.64.85-2.35,1.42-4.2,1.42s-3.25-.51-3.86-1.28l-.36-23.28c.06-1,1.84-1.87,4-1.91S50.9,98.64,51,99.67Z"/><path d="M67.48,124H25.39A4.76,4.76,0,0,1,23,119.44a4.65,4.65,0,0,1,2.43-4.13H67.48c1.84.08,3.32,2,3.33,4.31S69.34,123.9,67.48,124Z"/><path d="M70,128.32H22.11c-1.73-.36-2.85-1.28-2.77-2.27s1.17-1.74,2.77-2.07H70c2.1,0,3.79,1,3.8,2.16S72.16,128.28,70,128.32Z"/><path class="cls-6" d="M55.35,121H26.4c-1-.22-1.71-.81-1.67-1.45s.71-1.11,1.67-1.32h29c1.27,0,2.29.64,2.29,1.38S56.63,121,55.35,121Z"/><ellipse class="cls-6" cx="63.06" cy="119.65" rx="1.85" ry="1.99"/><path d="M16.64,16.51,1.4,7c-.19-.91.39-2.62,1.42-4.21A6.53,6.53,0,0,1,5.79,0L21,9.51c.62.48.19,2.37-1,4.24S17.36,16.87,16.64,16.51Z"/><path d="M94.18,99.88,84,88.85a8.13,8.13,0,0,1,2.6-3.57,7.51,7.51,0,0,1,3.49-2l10.2,11c.39.53-.6,2.16-2.22,3.66S94.69,100.31,94.18,99.88Z"/><path d="M88.17,77.11a45.53,45.53,0,1,1-62.68-66,6.51,6.51,0,0,0-.18-5.92,6.39,6.39,0,0,0-7.62-2.3A56.86,56.86,0,1,0,96,85.33c.08-.18,1.5-3.28-.26-6A6.38,6.38,0,0,0,88.17,77.11Z"/></g></g></svg>